<svg viewBox="0 0 52 52" xmlns="http://www.w3.org/2000/svg" xmlns:xlink="http://www.w3.org/1999/xlink" width="52px" height="52px">
    <path d="M 46 30 L 42 30 L 42 26 L 45.0313 26 C 45.4395 26 45.8086 25.751 45.959 25.3711 C 46.1113 24.9912 46.0176 24.5576 45.7207 24.2754 L 24.6895 4.2754 C 24.3027 3.9082 23.6973 3.9082 23.3105 4.2754 L 2.3105 24.2754 C 2.0137 24.5576 1.9199 24.9922 2.0723 25.3711 C 2.2227 25.751 2.5918 26 3 26 L 6 26 L 6 45 C 6 45.5527 6.4473 46 7 46 L 34.2842 46 C 35.1787 49.4404 38.2822 52 42 52 C 46.4121 52 50 48.4111 50 44 L 50 34 C 50 31.7939 48.2051 30 46 30 ZM 34 34 L 34 44 L 8 44 L 8 25 C 8 24.4473 7.5527 24 7 24 L 5.5 24 L 24 6.3809 L 42.5293 24 L 41 24 C 40.4473 24 40 24.4473 40 25 L 40 30 L 38 30 C 35.7949 30 34 31.7939 34 34 ZM 48 44 C 48 47.3086 45.3086 50 42 50 C 38.6914 50 36 47.3086 36 44 L 36 34 C 36 32.8975 36.8965 32 38 32 L 46 32 C 47.1035 32 48 32.8975 48 34 L 48 44 ZM 27.1016 21.0239 C 27.1016 19.3789 25.729 18.041 24.041 18.041 C 22.353 18.041 20.9795 19.3789 20.9795 21.0239 L 20.9795 33.3252 C 20.3262 34.0498 19.959 34.9805 19.959 35.9404 C 19.959 38.1348 21.7905 39.918 24.041 39.918 C 26.291 39.918 28.1221 38.1348 28.1221 35.9404 C 28.1221 34.9805 27.7559 34.0498 27.1016 33.3252 L 27.1016 21.0239 ZM 24.041 37.9297 C 22.915 37.9297 22 37.0371 22 35.9404 C 22 35.3799 22.2432 34.8564 22.6836 34.4697 C 22.8989 34.2813 23.0205 34.0127 23.0205 33.7314 L 23.0205 21.0239 C 23.0205 20.4756 23.479 20.0298 24.041 20.0298 C 24.603 20.0298 25.0615 20.4756 25.0615 21.0239 L 25.0615 33.7314 C 25.0615 34.0127 25.1831 34.2813 25.3984 34.4697 C 25.8384 34.8564 26.082 35.3789 26.082 35.9404 C 26.0815 37.0371 25.167 37.9297 24.041 37.9297 ZM 43.7959 43.8369 L 39.8779 43.8369 C 39.3359 43.8369 38.8984 44.2744 38.8984 44.8164 C 38.8984 45.3574 39.3359 45.7959 39.8779 45.7959 L 43.7959 45.7959 C 44.3369 45.7959 44.7754 45.3574 44.7754 44.8164 C 44.7754 44.2744 44.3369 43.8369 43.7959 43.8369 ZM 43.7959 36 L 42.8164 36 L 42.8164 35.0205 C 42.8164 34.4785 42.3779 34.041 41.8369 34.041 C 41.2949 34.041 40.8574 34.4785 40.8574 35.0205 L 40.8574 36 L 39.8779 36 C 39.3359 36 38.8984 36.4385 38.8984 36.9795 C 38.8984 37.5215 39.3359 37.959 39.8779 37.959 L 40.8574 37.959 L 40.8574 38.9385 C 40.8574 39.4805 41.2949 39.918 41.8369 39.918 C 42.3779 39.918 42.8164 39.4805 42.8164 38.9385 L 42.8164 37.959 L 43.7959 37.959 C 44.3369 37.959 44.7754 37.5215 44.7754 36.9795 C 44.7754 36.4385 44.3369 36 43.7959 36 Z" />
</svg>