<svg viewBox="0 0 13 13" xmlns="http://www.w3.org/2000/svg" xmlns:xlink="http://www.w3.org/1999/xlink" width="13px" height="13px">
    <path d="M 7.5615 6.5 L 12.2803 1.7813 C 12.5732 1.4883 12.5732 1.0127 12.2803 0.7197 C 11.9873 0.4268 11.5117 0.4268 11.2188 0.7197 L 6.5 5.439 L 1.7813 0.7197 C 1.4878 0.4268 1.0132 0.4268 0.7197 0.7197 C 0.4268 1.0127 0.4268 1.4883 0.7197 1.7813 L 5.439 6.5 L 0.7197 11.2188 C 0.4268 11.5117 0.4268 11.9873 0.7197 12.2803 C 0.8667 12.4268 1.0586 12.5 1.2505 12.5 C 1.4424 12.5 1.6343 12.4268 1.7813 12.2803 L 6.5 7.5615 L 11.2188 12.2803 C 11.3652 12.4268 11.5576 12.5 11.749 12.5 C 11.9414 12.5 12.1338 12.4268 12.2803 12.2803 C 12.5732 11.9873 12.5732 11.5117 12.2803 11.2188 L 7.5615 6.5 Z" />
</svg>