<svg viewBox="0 0 52 52" xmlns="http://www.w3.org/2000/svg" xmlns:xlink="http://www.w3.org/1999/xlink" width="52px" height="52px">
    <path d="M 43.6641 2 L 8.7358 2 C 7.7793 2 7 2.7793 7 3.7358 L 7 34 L 7 35.5996 L 7 47.6563 C 7 48.9492 8.0513 50 9.3442 50 L 43.0557 50 C 44.3477 50 45.4004 48.9492 45.4004 47.6563 L 45.4004 35.5996 L 45.4004 34 L 45.4004 3.7358 C 45.4004 2.7793 44.6211 2 43.6641 2 ZM 8.6001 3.7358 C 8.6001 3.6606 8.6606 3.6001 8.7358 3.6001 L 25.3999 3.6001 L 25.3999 34 L 8.6001 34 L 8.6001 3.7358 ZM 43.7998 47.6563 C 43.7998 48.0664 43.4668 48.4004 43.0557 48.4004 L 9.3442 48.4004 C 8.9336 48.4004 8.6001 48.0664 8.6001 47.6563 L 8.6001 35.5996 L 43.7998 35.5996 L 43.7998 47.6563 ZM 27 34 L 27 3.6001 L 43.6641 3.6001 C 43.7393 3.6001 43.7998 3.6606 43.7998 3.7358 L 43.7998 34 L 27 34 ZM 23 18 C 22.5586 18 22.2002 18.3574 22.2002 18.7998 L 22.2002 31.5996 C 22.2002 32.042 22.5586 32.4004 23 32.4004 C 23.4414 32.4004 23.7998 32.042 23.7998 31.5996 L 23.7998 18.7998 C 23.7998 18.3574 23.4414 18 23 18 ZM 13.3999 19.6001 L 11 19.6001 L 11 30.7998 L 20.6001 30.7998 L 20.6001 19.6001 L 18.2002 19.6001 L 13.3999 19.6001 ZM 16.6001 21.2002 L 16.6001 23.6001 L 15 23.6001 L 15 21.2002 L 16.6001 21.2002 ZM 19 21.2002 L 19 29.2002 L 12.6001 29.2002 L 12.6001 21.2002 L 13.3999 21.2002 L 13.3999 25.2002 L 18.2002 25.2002 L 18.2002 21.2002 L 19 21.2002 ZM 19 38 C 19 38.4424 19.3584 38.7998 19.7998 38.7998 L 32.5996 38.7998 C 33.042 38.7998 33.4004 38.4424 33.4004 38 C 33.4004 37.5576 33.042 37.2002 32.5996 37.2002 L 19.7998 37.2002 C 19.3584 37.2002 19 37.5576 19 38 ZM 29.4004 18 C 28.958 18 28.5996 18.3574 28.5996 18.7998 L 28.5996 31.5996 C 28.5996 32.042 28.958 32.4004 29.4004 32.4004 C 29.8418 32.4004 30.2002 32.042 30.2002 31.5996 L 30.2002 18.7998 C 30.2002 18.3574 29.8418 18 29.4004 18 ZM 36.5996 7.6001 L 35 7.6001 C 34.5586 7.6001 34.2002 7.9575 34.2002 8.3999 C 34.2002 8.8423 34.5586 9.2002 35 9.2002 L 36.5996 9.2002 C 37.042 9.2002 37.4004 8.8423 37.4004 8.3999 C 37.4004 7.9575 37.042 7.6001 36.5996 7.6001 Z" />
</svg>