<svg viewBox="0 0 52 52" xmlns="http://www.w3.org/2000/svg" xmlns:xlink="http://www.w3.org/1999/xlink" width="52px" height="52px">
    <path d="M 26 12.0625 C 13.6631 12.0625 2 17.4082 2 23.0625 C 2 33.8291 5.9268 40.0625 26 40.0625 C 46.0732 40.0625 50 33.8291 50 23.0625 C 50 17.4082 38.3369 12.0625 26 12.0625 ZM 26 14.0625 C 38.7617 14.0625 48 19.4385 48 23.0625 C 48 26.4434 39.1602 30.0625 26 30.0625 C 12.8398 30.0625 4 26.4434 4 23.0625 C 4 19.4385 13.2383 14.0625 26 14.0625 ZM 26 38.0625 C 10.2783 38.0625 5.4028 34.2402 4.29 27.1221 C 8.3433 30.375 17.2031 32.0625 26 32.0625 C 34.7969 32.0625 43.6572 30.375 47.71 27.1221 C 46.5977 34.2402 41.7217 38.0625 26 38.0625 ZM 24 35.0625 C 24 35.6152 24.4473 36.0625 25 36.0625 L 27 36.0625 C 27.5527 36.0625 28 35.6152 28 35.0625 C 28 34.5098 27.5527 34.0625 27 34.0625 L 25 34.0625 C 24.4473 34.0625 24 34.5098 24 35.0625 ZM 32 16.0625 C 31.4473 16.0625 31 16.5103 31 17.0625 C 31 17.6147 31.4473 18.0625 32 18.0625 C 32.5527 18.0625 33 17.6147 33 17.0625 C 33 16.5103 32.5527 16.0625 32 16.0625 ZM 28 16.0625 C 27.4473 16.0625 27 16.5103 27 17.0625 C 27 17.6147 27.4473 18.0625 28 18.0625 C 28.5527 18.0625 29 17.6147 29 17.0625 C 29 16.5103 28.5527 16.0625 28 16.0625 ZM 24 16.0625 C 23.4478 16.0625 23 16.5103 23 17.0625 C 23 17.6147 23.4478 18.0625 24 18.0625 C 24.5522 18.0625 25 17.6147 25 17.0625 C 25 16.5103 24.5522 16.0625 24 16.0625 ZM 20 16.0625 C 19.4478 16.0625 19 16.5103 19 17.0625 C 19 17.6147 19.4478 18.0625 20 18.0625 C 20.5522 18.0625 21 17.6147 21 17.0625 C 21 16.5103 20.5522 16.0625 20 16.0625 Z" />
</svg>