<svg viewBox="0 0 52 52" xmlns="http://www.w3.org/2000/svg" xmlns:xlink="http://www.w3.org/1999/xlink" width="52px" height="52px">
    <path d="M 5.4453 16.7568 C 5.8779 16.7568 6.2676 16.4961 6.4326 16.0972 C 6.5986 15.6973 6.5073 15.2378 6.2012 14.9321 C 3.4448 12.1753 3.4473 7.6523 6.207 4.8491 C 6.4795 4.5776 6.585 4.1812 6.4839 3.8101 C 6.3828 3.4395 6.0903 3.1514 5.7178 3.0562 C 5.3452 2.9609 4.9502 3.0728 4.6836 3.3491 C 1.1035 6.9863 1.106 12.8604 4.6895 16.4434 C 4.8892 16.6445 5.1616 16.7573 5.4453 16.7568 ZM 9.5327 14.4897 C 9.9653 14.4897 10.355 14.229 10.5205 13.8301 C 10.686 13.4302 10.5947 12.9707 10.2886 12.6646 C 8.7915 11.1597 8.7915 8.728 10.2886 7.2231 C 10.5654 6.9546 10.6763 6.5576 10.5781 6.1846 C 10.48 5.811 10.1885 5.52 9.8159 5.4219 C 9.4424 5.3237 9.0454 5.4346 8.7769 5.7114 C 6.4448 8.0513 6.4448 11.8369 8.7769 14.1763 C 8.9771 14.3774 9.249 14.4902 9.5327 14.4897 ZM 44.5938 25.416 L 17.4023 25.416 L 17.4023 13.5825 C 19.1216 12.9707 20.1094 11.166 19.6973 9.3877 C 19.2856 7.6094 17.605 6.4224 15.7915 6.6294 C 13.9775 6.8359 12.6074 8.3701 12.606 10.1958 C 12.6084 11.8184 13.6973 13.2388 15.2642 13.6611 L 15.2642 25.416 L 8.8066 25.416 C 5.8564 25.4194 3.4648 27.8105 3.4614 30.7617 L 3.4614 41.7227 C 3.4614 42.3135 3.9404 42.792 4.5308 42.792 L 7.9961 42.792 L 7.9961 47.2891 C 7.9961 47.8789 8.4751 48.3574 9.0654 48.3574 L 43.8311 48.3574 C 44.4209 48.3574 44.8994 47.8789 44.8994 47.2891 L 44.8994 42.792 L 48.8691 42.792 C 49.46 42.792 49.9385 42.3135 49.9385 41.7227 L 49.9385 30.7617 C 49.9346 27.8105 47.5439 25.4194 44.5938 25.416 ZM 14.7441 10.1958 C 14.7441 9.395 15.3936 8.7456 16.1943 8.7456 C 16.9956 8.7456 17.6445 9.395 17.6445 10.1958 C 17.6445 10.9971 16.9956 11.6465 16.1943 11.6465 C 15.394 11.645 14.7451 10.9966 14.7441 10.1958 ZM 42.7617 46.2197 L 10.1343 46.2197 L 10.1343 42.792 L 42.7617 42.792 L 42.7617 46.2197 ZM 47.8008 40.6543 L 5.5996 40.6543 L 5.5996 30.7617 C 5.6016 28.9902 7.0361 27.5566 8.8066 27.5537 L 44.5938 27.5537 C 46.3633 27.5566 47.7988 28.9902 47.8008 30.7617 L 47.8008 40.6543 ZM 18.8521 31.0195 C 18.2622 31.0195 17.7832 31.498 17.7832 32.0889 L 17.7832 36.1182 C 17.7832 36.709 18.2622 37.1875 18.8521 37.1875 C 19.4424 37.1875 19.9209 36.709 19.9209 36.1182 L 19.9209 32.0889 C 19.9209 31.498 19.4424 31.0195 18.8521 31.0195 ZM 39.0264 30.3389 C 37.0996 30.3389 35.5391 31.9004 35.5391 33.8262 C 35.5391 35.7529 37.0996 37.3145 39.0264 37.3145 C 40.9102 37.3145 42.4414 35.7998 42.5127 33.8662 L 42.5137 33.8262 C 42.5117 31.9014 40.9512 30.3408 39.0264 30.3389 ZM 39.0264 35.1768 C 38.2832 35.1768 37.6807 34.5762 37.6768 33.833 C 37.6738 33.0898 38.2705 32.4844 39.0137 32.4775 C 39.7559 32.4697 40.3652 33.0645 40.376 33.8076 C 40.3369 34.5762 39.748 35.1768 39.0264 35.1768 ZM 12.6226 31.0195 C 12.0322 31.0195 11.5537 31.498 11.5537 32.0889 L 11.5537 36.1182 C 11.5537 36.709 12.0322 37.1875 12.6226 37.1875 C 13.2134 37.1875 13.6919 36.709 13.6919 36.1182 L 13.6919 32.0889 C 13.6919 31.498 13.2134 31.0195 12.6226 31.0195 Z" />
</svg>