<svg viewBox="0 0 52 52" xmlns="http://www.w3.org/2000/svg" xmlns:xlink="http://www.w3.org/1999/xlink" width="52px" height="52px">
    <path d="M 16.9019 7.0386 C 17.6938 6.0508 18.0034 4.5166 17.6553 3.3076 C 17.4985 2.7642 17.8125 2.1968 18.3555 2.0405 C 18.8994 1.8838 19.4668 2.1973 19.623 2.7407 C 20.1528 4.5786 19.7012 6.8203 18.5 8.3193 C 17.4058 9.6846 17.1211 12.0874 18.3779 13.2598 C 18.791 13.6455 18.8135 14.2935 18.4282 14.707 C 18.2266 14.9233 17.9531 15.0327 17.6792 15.0327 C 17.4287 15.0327 17.1782 14.9414 16.9805 14.7573 C 14.8359 12.7568 15.2085 9.1509 16.9019 7.0386 ZM 23.6328 8.2275 L 30.3672 8.2275 C 30.9326 8.2275 31.3916 7.769 31.3916 7.2036 C 31.3916 6.6382 30.9326 6.1797 30.3672 6.1797 L 23.6328 6.1797 C 23.0674 6.1797 22.6089 6.6382 22.6089 7.2036 C 22.6089 7.769 23.0674 8.2275 23.6328 8.2275 ZM 46.4678 18.0308 L 46.4678 26.2285 C 46.4678 30.3223 43.3965 33.7129 39.4375 34.2178 L 39.4375 43.3633 L 40.459 43.3633 C 41.0244 43.3633 41.4834 43.8223 41.4834 44.3877 L 41.4834 48.9355 C 41.4834 49.501 41.0244 49.96 40.459 49.96 L 7.0923 49.96 C 6.5264 49.96 6.0679 49.501 6.0679 48.9355 L 6.0679 44.3867 C 6.0679 43.8213 6.5264 43.3633 7.0923 43.3633 L 7.9429 43.3633 C 7.54 34.5322 8.4092 24.6094 11.9019 21.3145 L 6.2646 13.5864 C 6.1367 13.4111 6.0679 13.1997 6.0679 12.9829 L 6.0679 11.001 C 6.0679 10.729 6.1758 10.4688 6.3682 10.2769 C 6.5601 10.0845 6.8203 9.9766 7.0923 9.9766 L 11.3311 9.9771 C 11.5171 8.8945 11.9692 7.8584 12.6265 7.0386 C 13.4185 6.0508 13.728 4.5166 13.3794 3.3081 C 13.2231 2.7646 13.5366 2.1968 14.0801 2.0405 C 14.6235 1.8838 15.1909 2.1973 15.3477 2.7407 C 15.8774 4.5781 15.4258 6.8203 14.2246 8.3193 C 13.6689 9.0122 13.3223 9.9727 13.2798 10.9043 C 13.2827 10.936 13.2842 10.9683 13.2842 11.001 C 13.2842 11.0464 13.2813 11.0913 13.2759 11.1353 C 13.2837 11.9546 13.5371 12.7319 14.1025 13.2598 C 14.5161 13.646 14.5386 14.2939 14.1523 14.707 C 13.7666 15.1206 13.1191 15.1431 12.7051 14.7573 C 11.9614 14.063 11.4819 13.1162 11.3086 12.0249 L 8.1162 12.0249 L 8.1162 12.6489 L 14.1436 20.9126 C 14.1602 20.9351 14.1763 20.958 14.1914 20.9819 C 14.2563 21.0845 14.3013 21.1953 14.3262 21.3086 C 14.3594 21.4575 14.3574 21.6094 14.3252 21.7544 L 14.3252 21.7544 C 14.3247 21.7549 14.3247 21.7554 14.3247 21.7559 C 14.2915 21.9028 14.2261 22.0425 14.1304 22.1636 C 14.0596 22.2534 13.9727 22.333 13.8711 22.3965 C 13.8477 22.4116 13.8242 22.4253 13.7998 22.4375 C 12.5449 23.125 11.4277 25.5747 10.7329 29.1641 C 9.9912 32.9941 9.7363 37.8965 9.9927 43.3633 L 37.3896 43.3633 L 37.3896 33.2588 C 37.3896 32.6934 37.8477 32.2344 38.4131 32.2344 C 41.7246 32.2344 44.4199 29.54 44.4199 26.2285 L 44.4199 18.0313 C 44.4199 14.7192 41.7246 12.0249 38.4131 12.0249 L 31.3916 12.0249 L 31.3916 34.1943 C 31.3916 35.9805 29.9375 37.4346 28.1504 37.4346 C 26.3633 37.4346 24.9097 35.9805 24.9097 34.1943 L 24.9097 15.0571 C 24.9097 14.4917 25.3682 14.0332 25.9336 14.0332 C 26.4995 14.0332 26.958 14.4917 26.958 15.0571 L 26.958 34.1934 C 26.958 34.8516 27.4932 35.3867 28.1504 35.3867 C 28.8086 35.3867 29.3438 34.8516 29.3438 34.1934 L 29.3438 12.0249 L 20.5034 12.0249 L 20.5034 9.9771 L 38.4131 9.9766 C 42.8545 9.9766 46.4678 13.5898 46.4678 18.0308 ZM 39.4355 45.4111 L 8.1162 45.4111 L 8.1162 47.9111 L 39.4355 47.9111 L 39.4355 45.4111 ZM 38.4131 28.334 C 38.9785 28.334 39.4375 27.876 39.4375 27.3105 L 39.4375 16.9492 C 39.4375 16.3838 38.9785 15.9253 38.4131 15.9253 C 37.8477 15.9253 37.3896 16.3838 37.3896 16.9492 L 37.3896 27.3105 C 37.3896 27.876 37.8477 28.334 38.4131 28.334 Z" />
</svg>