<svg viewBox="0 0 52 52" xmlns="http://www.w3.org/2000/svg" xmlns:xlink="http://www.w3.org/1999/xlink" width="52px" height="52px">
	<path d="M 37.71 22.2905 C 37.3223 21.9033 36.6943 21.9033 36.3076 22.2905 L 34.29 24.3076 C 33.9033 24.6948 33.9033 25.3223 34.29 25.7095 C 34.4844 25.9033 34.7383 26 34.9912 26 C 35.2451 26 35.499 25.9033 35.6924 25.7095 L 37.71 23.6924 C 38.0967 23.3052 38.0967 22.6777 37.71 22.2905 ZM 18.7095 28.29 C 18.3223 27.9033 17.6943 27.9033 17.3071 28.29 L 15.2905 30.3076 C 14.9033 30.6943 14.9033 31.3223 15.2905 31.71 C 15.4839 31.9033 15.7378 32 15.9917 32 C 16.2451 32 16.499 31.9033 16.6924 31.71 L 18.7095 29.6924 C 19.0967 29.3057 19.0967 28.6777 18.7095 28.29 ZM 44.9033 16 C 42.0928 16 39.8066 18.312 39.8066 21.1533 C 39.8066 22.1895 40.1123 23.1548 40.6348 23.9634 L 35.1289 29.5313 C 34.3281 29.002 33.374 28.6934 32.3486 28.6934 C 31.2871 28.6934 30.2998 29.0244 29.4824 29.5889 L 23.9194 23.9629 C 24.4424 23.1543 24.7471 22.1895 24.7471 21.1533 C 24.7471 18.3115 22.4609 16 19.6509 16 C 16.8403 16 14.5542 18.3115 14.5542 21.1533 C 14.5542 22.1895 14.8594 23.1538 15.3818 23.9629 L 9.8755 29.5303 C 9.0757 29.002 8.1211 28.6934 7.0967 28.6934 C 4.2861 28.6934 2 31.0059 2 33.8467 C 2 36.6885 4.2861 39 7.0967 39 C 9.9067 39 12.1929 36.6885 12.1929 33.8467 C 12.1929 32.8105 11.8877 31.8457 11.3652 31.0361 L 16.8711 25.4692 C 17.6714 25.9976 18.626 26.3062 19.6509 26.3062 C 20.6758 26.3062 21.6304 25.9976 22.4302 25.4692 L 28.0234 31.126 C 27.5361 31.916 27.2529 32.8486 27.2529 33.8467 C 27.2529 36.6885 29.5391 39 32.3496 39 C 35.1592 39 37.4453 36.6885 37.4453 33.8467 C 37.4453 32.8105 37.1406 31.8457 36.6182 31.0371 L 42.125 25.4697 C 42.9248 25.998 43.8789 26.3062 44.9033 26.3062 C 47.7139 26.3062 50 23.9946 50 21.1533 C 50 18.3115 47.7139 16 44.9033 16 ZM 7.0967 36.8701 C 5.4478 36.8701 4.1064 35.5137 4.1064 33.8467 C 4.1064 32.1797 5.4478 30.8242 7.0967 30.8242 C 8.7451 30.8242 10.0864 32.1797 10.0864 33.8467 C 10.0864 35.5137 8.7451 36.8701 7.0967 36.8701 ZM 19.6509 24.1763 C 18.0024 24.1763 16.6611 22.8203 16.6611 21.1533 C 16.6611 19.4863 18.0024 18.1299 19.6509 18.1299 C 21.2993 18.1299 22.6406 19.4863 22.6406 21.1533 C 22.6406 22.8203 21.2993 24.1763 19.6509 24.1763 ZM 32.3486 36.8701 C 30.7002 36.8701 29.3594 35.5137 29.3594 33.8467 C 29.3594 32.1797 30.7002 30.8232 32.3486 30.8232 C 33.998 30.8232 35.3389 32.1797 35.3389 33.8467 C 35.3389 35.5137 33.998 36.8701 32.3486 36.8701 ZM 44.9033 24.1763 C 43.2549 24.1763 41.9131 22.8203 41.9131 21.1533 C 41.9131 19.4863 43.2549 18.1299 44.9033 18.1299 C 46.5518 18.1299 47.8936 19.4863 47.8936 21.1533 C 47.8936 22.8203 46.5518 24.1763 44.9033 24.1763 Z" />
</svg>