<svg viewBox="0 0 52 52" xmlns="http://www.w3.org/2000/svg" xmlns:xlink="http://www.w3.org/1999/xlink" width="52px" height="52px">
    <path d="M 44.7363 14 L 12.2051 14 C 9.2998 14.0034 6.9453 16.3579 6.9419 19.2632 L 6.9419 20.1294 L 5.1577 20.1294 C 3.4146 20.1318 2.002 21.5444 2 23.2876 L 2 28.8174 C 2.002 30.5605 3.4146 31.9736 5.1577 31.9756 L 6.9419 31.9756 L 6.9419 32.8418 C 6.9453 35.7471 9.2998 38.1016 12.2051 38.1055 L 44.7363 38.1055 C 47.6426 38.1016 49.9971 35.7471 50 32.8418 L 50 19.2632 C 49.9971 16.3579 47.6426 14.0034 44.7363 14 ZM 5.1577 29.8701 C 4.5767 29.8701 4.106 29.3984 4.1055 28.8174 L 4.1055 23.2876 C 4.106 22.7065 4.5767 22.2358 5.1577 22.2349 L 6.9419 22.2349 L 6.9419 29.8701 L 5.1577 29.8701 ZM 47.8945 32.8418 C 47.8926 34.5859 46.4805 35.998 44.7363 36 L 12.2051 36 C 10.4619 35.998 9.0493 34.5859 9.0474 32.8418 L 9.0474 19.2632 C 9.0493 17.5195 10.4619 16.1074 12.2051 16.1055 L 44.7363 16.1055 C 46.4805 16.1074 47.8926 17.5195 47.8945 19.2632 L 47.8945 32.8418 ZM 21.6084 25 L 19.7651 25 L 19.7651 23.1567 C 19.7651 22.5752 19.2939 22.104 18.7124 22.104 C 18.1313 22.104 17.6602 22.5752 17.6602 23.1567 L 17.6602 25 L 15.8164 25 C 15.2354 25 14.7642 25.4712 14.7642 26.0527 C 14.7642 26.6338 15.2354 27.1055 15.8164 27.1055 L 17.6602 27.1055 L 17.6602 28.9482 C 17.6602 29.5303 18.1313 30.001 18.7124 30.001 C 19.2939 30.001 19.7651 29.5303 19.7651 28.9482 L 19.7651 27.1055 L 21.6084 27.1055 C 22.1899 27.1055 22.6611 26.6338 22.6611 26.0527 C 22.6611 25.4712 22.1899 25 21.6084 25 Z" />
</svg>