<svg viewBox="0 0 52 52" xmlns="http://www.w3.org/2000/svg" xmlns:xlink="http://www.w3.org/1999/xlink" width="52px" height="52px" fill="#fff">
    <path d="M 49 8 L 3 8 C 2.4473 8 2 8.4473 2 9 L 2 16 C 2 18.2061 3.7939 20 6 20 L 6 24 C 6 35.0283 14.9717 44 26 44 C 37.0283 44 46 35.0283 46 24 L 46 20 C 48.2061 20 50 18.2061 50 16 L 50 9 C 50 8.4473 49.5527 8 49 8 ZM 44 24 C 44 33.9248 35.9248 42 26 42 C 16.0752 42 8 33.9248 8 24 L 8 20 L 20.062 20 C 17.6113 21.8247 16 24.7173 16 28 C 16 33.5137 20.4863 38 26 38 C 31.5137 38 36 33.5137 36 28 C 36 24.7173 34.3887 21.8247 31.9385 20 L 44 20 L 44 24 ZM 26 20 C 30.4111 20 34 23.5889 34 28 C 34 32.4111 30.4111 36 26 36 C 21.5889 36 18 32.4111 18 28 C 18 23.5889 21.5889 20 26 20 ZM 48 16 C 48 17.1025 47.1025 18 46 18 L 6 18 C 4.8975 18 4 17.1025 4 16 L 4 10 L 48 10 L 48 16 ZM 39 22 C 38.4473 22 38 22.4478 38 23 C 38 23.5522 38.4473 24 39 24 C 39.5527 24 40 23.5522 40 23 C 40 22.4478 39.5527 22 39 22 ZM 26 34 C 29.3086 34 32 31.3086 32 28 C 32 24.6914 29.3086 22 26 22 C 22.6914 22 20 24.6914 20 28 C 20 31.3086 22.6914 34 26 34 ZM 26 24 C 28.2061 24 30 25.7939 30 28 C 30 30.2061 28.2061 32 26 32 C 23.7939 32 22 30.2061 22 28 C 22 25.7939 23.7939 24 26 24 ZM 25 29 C 25.5527 29 26 28.5527 26 28 C 26.5527 28 27 27.5527 27 27 C 27 26.4473 26.5527 26 26 26 C 24.8975 26 24 26.8975 24 28 C 24 28.5527 24.4473 29 25 29 Z" />
</svg>