<svg viewBox="0 0 52 52" xmlns="http://www.w3.org/2000/svg" xmlns:xlink="http://www.w3.org/1999/xlink" width="52px" height="52px">
    <path d="M 45.7412 36.4941 L 45.7412 16.9307 L 45.7412 12.7793 L 45.7363 12.6914 L 45.7354 12.6621 L 45.7246 12.5952 L 45.7178 12.5513 L 45.7061 12.5088 L 45.6885 12.4424 L 45.6787 12.4165 L 45.6494 12.3379 L 45.6357 12.3101 L 45.6006 12.2407 L 45.5771 12.2017 L 45.5449 12.1514 L 45.5098 12.1045 L 45.4805 12.0679 L 45.4375 12.0205 L 45.4082 11.9902 L 45.3613 11.9473 L 45.3281 11.9185 L 45.2813 11.8838 L 45.2393 11.8545 L 45.1963 11.8281 L 45.1455 11.7998 L 45.1055 11.7803 L 45.0479 11.7549 L 45.0068 11.7402 L 44.9473 11.7202 L 44.9004 11.708 L 44.8457 11.6958 L 44.7842 11.686 L 44.7402 11.6802 L 44.6602 11.6763 L 44.6367 11.6753 L 44.5449 11.6802 L 44.5205 11.6816 L 44.4482 11.6924 L 44.4092 11.6992 L 44.3633 11.7109 L 44.3008 11.728 L 44.2725 11.7383 L 44.1953 11.7676 L 28.4551 18.7241 L 28.4355 18.7324 L 28.4131 18.7441 L 28.3438 18.7788 L 28.3047 18.8027 L 28.2539 18.8345 L 28.207 18.8696 L 28.1709 18.8984 L 28.123 18.9419 L 28.0928 18.9707 L 28.0498 19.0176 L 28.0215 19.0513 L 27.9863 19.0981 L 27.957 19.1396 L 27.9316 19.1826 L 27.9023 19.2339 L 27.8838 19.2734 L 27.8574 19.332 L 27.8438 19.3706 L 27.8232 19.4326 L 27.8115 19.4771 L 27.7979 19.5347 L 27.7891 19.5923 L 27.7832 19.6396 L 27.7793 19.7158 L 27.7783 19.7422 L 27.7783 19.7622 L 27.7783 23.9224 L 27.7783 39.6787 C 26.7852 39.0166 25.5259 38.6406 24.1333 38.6406 C 23.333 38.6406 22.5293 38.7676 21.7441 39.0186 C 20.0933 39.5459 18.6987 40.5684 17.8179 41.8965 C 16.8862 43.3008 16.6294 44.877 17.0952 46.335 C 17.8022 48.5479 20.0166 49.9775 22.7363 49.9775 C 23.5366 49.9775 24.3403 49.8506 25.1255 49.5996 C 26.7759 49.0723 28.1709 48.0498 29.0518 46.7217 C 29.7559 45.6611 30.0732 44.5029 29.9863 43.3711 L 29.9863 24.627 L 43.5322 18.6401 L 43.5322 32.8018 C 42.5391 32.1396 41.2803 31.7637 39.8877 31.7637 C 39.0869 31.7637 38.2832 31.8906 37.499 32.1416 C 34.0029 33.2588 31.918 36.541 32.8496 39.458 C 33.5566 41.6709 35.7705 43.1006 38.4902 43.1006 C 39.291 43.1006 40.0947 42.9736 40.8799 42.7227 C 42.5303 42.1953 43.9248 41.1729 44.8066 39.8447 C 45.5098 38.7842 45.8281 37.626 45.7412 36.4941 ZM 24.4531 47.4961 C 23.8857 47.6777 23.3081 47.7695 22.7363 47.7695 C 20.9961 47.7695 19.6079 46.9424 19.1992 45.6631 C 18.9414 44.8564 19.1045 43.9521 19.6582 43.1172 C 20.2627 42.2061 21.2422 41.498 22.4165 41.123 C 22.9839 40.9414 23.5615 40.8496 24.1333 40.8496 C 25.873 40.8496 27.2617 41.6768 27.6709 42.9561 C 27.7266 43.1309 27.7617 43.3115 27.7783 43.4932 L 27.7783 43.9111 L 27.7803 43.9473 C 27.7373 44.4658 27.5469 44.9961 27.2109 45.501 C 26.6069 46.4121 25.6274 47.1211 24.4531 47.4961 ZM 29.9863 22.2124 L 29.9863 20.4614 L 43.5322 14.4746 L 43.5322 16.2256 L 29.9863 22.2124 ZM 40.208 40.6191 C 39.6406 40.7998 39.0625 40.8916 38.4912 40.8916 C 36.751 40.8916 35.3623 40.0654 34.9531 38.7861 C 34.3916 37.0283 35.835 34.9922 38.1709 34.2451 C 38.7383 34.0645 39.3164 33.9727 39.8877 33.9727 C 41.6279 33.9727 43.0166 34.7988 43.4258 36.0791 C 43.4814 36.2539 43.5156 36.4336 43.5332 36.6162 L 43.5332 36.8438 L 43.541 36.9717 C 43.5156 37.5215 43.3223 38.0869 42.9658 38.624 C 42.3613 39.5352 41.3818 40.2432 40.208 40.6191 ZM 18.3032 30.4219 C 18.9536 29.4414 19.2739 28.377 19.2505 27.3281 L 19.2505 6.4478 C 20.1743 7.4648 21.3271 8.5249 22.5234 9.1045 C 24.6538 10.1362 24.772 11.7354 24.7075 13.4214 L 24.6987 13.6743 C 24.6812 14.2837 25.1611 14.792 25.771 14.8096 L 25.8027 14.8101 C 26.3984 14.8101 26.8892 14.3359 26.9063 13.7373 L 26.9141 13.5063 C 26.9673 12.1172 27.0918 8.8638 23.4863 7.1167 C 21.6973 6.25 19.6919 3.5967 19.0698 2.647 L 19.0244 2.584 L 19 2.5518 L 18.9673 2.5151 C 18.8882 2.4272 18.7983 2.354 18.6997 2.2969 L 18.6714 2.2798 L 18.6465 2.2681 C 18.5439 2.2158 18.4321 2.1792 18.3135 2.1611 L 18.2637 2.1538 L 18.2236 2.1509 L 18.1523 2.1475 L 18.1157 2.1484 L 18.0425 2.1523 L 18 2.1577 L 17.9351 2.1675 L 17.8872 2.1787 L 17.8311 2.1934 L 17.7773 2.2114 L 17.73 2.229 L 17.6704 2.2559 L 17.6318 2.2744 L 17.5684 2.3115 L 17.542 2.3267 L 17.479 2.3726 L 17.4468 2.3965 L 17.4087 2.4307 C 17.3198 2.5107 17.2461 2.6021 17.189 2.7017 L 17.1748 2.7256 L 17.1626 2.7505 C 17.1108 2.8525 17.0747 2.9639 17.0562 3.0811 L 17.0483 3.1333 L 17.0459 3.1724 L 17.042 3.2451 L 17.042 23.3867 C 16.0469 22.7188 14.7832 22.3398 13.3848 22.3398 C 12.5845 22.3398 11.7808 22.4673 10.9956 22.7178 C 7.5 23.835 5.4146 27.1172 6.3467 30.0342 C 7.0537 32.2471 9.2681 33.6768 11.9878 33.6768 C 12.7881 33.6768 13.5918 33.5498 14.377 33.2988 C 16.0278 32.7715 17.4219 31.75 18.3032 30.4219 ZM 16.4629 29.2012 C 15.8584 30.1123 14.8789 30.8203 13.7046 31.1953 C 13.1372 31.377 12.5596 31.4688 11.9878 31.4688 C 10.2476 31.4688 8.8594 30.6416 8.4502 29.3623 C 7.8887 27.6055 9.332 25.5684 11.668 24.8223 C 12.2354 24.6406 12.813 24.5488 13.3848 24.5488 C 15.1245 24.5488 16.5132 25.3755 16.9219 26.6553 C 17.1797 27.4619 17.0166 28.3662 16.4629 29.2012 Z" />
</svg>