<svg viewBox="0 0 52 52" xmlns="http://www.w3.org/2000/svg" xmlns:xlink="http://www.w3.org/1999/xlink" width="52px" height="52px" fill="#fff">
    <path d="M 46 24.0625 L 42 24.0625 L 42 10.0625 C 42 7.8564 40.2061 6.0625 38 6.0625 L 6 6.0625 C 3.7939 6.0625 2 7.8564 2 10.0625 L 2 24.0625 C 2 26.2686 3.7939 28.0625 6 28.0625 L 34 28.0625 L 34 38.0625 C 34 42.4736 37.5889 46.0625 42 46.0625 C 46.4111 46.0625 50 42.4736 50 38.0625 L 50 28.0625 C 50 25.8564 48.2061 24.0625 46 24.0625 ZM 34.5566 26.0625 L 6 26.0625 C 4.8975 26.0625 4 25.165 4 24.0625 L 4 10.0625 C 4 8.96 4.8975 8.0625 6 8.0625 L 38 8.0625 C 39.1025 8.0625 40 8.96 40 10.0625 L 40 24.0625 L 38 24.0625 C 36.5254 24.0625 35.25 24.8726 34.5566 26.0625 ZM 48 38.0625 C 48 41.3711 45.3086 44.0625 42 44.0625 C 38.6914 44.0625 36 41.3711 36 38.0625 L 36 28.0625 C 36 26.96 36.8975 26.0625 38 26.0625 L 46 26.0625 C 47.1025 26.0625 48 26.96 48 28.0625 L 48 38.0625 ZM 36 10.0625 C 34.8955 10.0625 34 10.958 34 12.0625 C 34 13.167 34.8955 14.0625 36 14.0625 C 37.1045 14.0625 38 13.167 38 12.0625 C 38 10.958 37.1045 10.0625 36 10.0625 ZM 7 14.0625 L 29 14.0625 C 29.5527 14.0625 30 13.6152 30 13.0625 C 30 12.5098 29.5527 12.0625 29 12.0625 L 7 12.0625 C 6.4473 12.0625 6 12.5098 6 13.0625 C 6 13.6152 6.4473 14.0625 7 14.0625 ZM 38 19.0625 C 38 18.5098 37.5527 18.0625 37 18.0625 L 7 18.0625 C 6.4473 18.0625 6 18.5098 6 19.0625 L 6 23.0625 C 6 23.6152 6.4473 24.0625 7 24.0625 L 37 24.0625 C 37.5527 24.0625 38 23.6152 38 23.0625 L 38 19.0625 ZM 36 22.0625 L 8 22.0625 L 8 20.0625 L 36 20.0625 L 36 22.0625 ZM 44 38.0625 L 40 38.0625 C 39.4473 38.0625 39 38.5098 39 39.0625 C 39 39.6152 39.4473 40.0625 40 40.0625 L 44 40.0625 C 44.5527 40.0625 45 39.6152 45 39.0625 C 45 38.5098 44.5527 38.0625 44 38.0625 ZM 44 30.0625 L 43 30.0625 L 43 29.0625 C 43 28.5098 42.5527 28.0625 42 28.0625 C 41.4473 28.0625 41 28.5098 41 29.0625 L 41 30.0625 L 40 30.0625 C 39.4473 30.0625 39 30.5098 39 31.0625 C 39 31.6152 39.4473 32.0625 40 32.0625 L 41 32.0625 L 41 33.0625 C 41 33.6152 41.4473 34.0625 42 34.0625 C 42.5527 34.0625 43 33.6152 43 33.0625 L 43 32.0625 L 44 32.0625 C 44.5527 32.0625 45 31.6152 45 31.0625 C 45 30.5098 44.5527 30.0625 44 30.0625 ZM 21 30.0625 C 20.4473 30.0625 20 30.5098 20 31.0625 L 20 37.0625 C 20 37.6152 20.4473 38.0625 21 38.0625 C 21.5527 38.0625 22 37.6152 22 37.0625 L 22 31.0625 C 22 30.5098 21.5527 30.0625 21 30.0625 ZM 13 30.0625 C 12.4473 30.0625 12 30.5098 12 31.0625 C 12 32.2598 11.6328 32.8105 11.168 33.5078 C 10.6475 34.2881 10 35.2598 10 37.0625 C 10 37.6152 10.4473 38.0625 11 38.0625 C 11.5527 38.0625 12 37.6152 12 37.0625 C 12 35.8652 12.3672 35.3145 12.832 34.6172 C 13.3525 33.8369 14 32.8652 14 31.0625 C 14 30.5098 13.5527 30.0625 13 30.0625 ZM 30 31.0625 C 30 30.5098 29.5527 30.0625 29 30.0625 C 28.4473 30.0625 28 30.5098 28 31.0625 C 28 32.8652 28.6475 33.8369 29.168 34.6172 C 29.6328 35.3145 30 35.8652 30 37.0625 C 30 37.6152 30.4473 38.0625 31 38.0625 C 31.5527 38.0625 32 37.6152 32 37.0625 C 32 35.2598 31.3525 34.2881 30.832 33.5078 C 30.3672 32.8105 30 32.2598 30 31.0625 Z" />
</svg>