<svg viewBox="0 0 52 52" xmlns="http://www.w3.org/2000/svg" xmlns:xlink="http://www.w3.org/1999/xlink" width="52px" height="52px">
    <path d="M 49.6563 24.353 L 26.6563 4.2461 C 26.2813 3.918 25.7188 3.918 25.3438 4.2461 L 2.3438 24.353 C 2.0293 24.6289 1.918 25.0718 2.0625 25.4644 C 2.209 25.8574 2.582 26.1172 3 26.1172 L 8 26.1172 L 8 47.2295 C 8 47.7852 8.4473 48.2354 9 48.2354 L 43 48.2354 C 43.5527 48.2354 44 47.7852 44 47.2295 L 44 26.1172 L 49 26.1172 C 49.418 26.1172 49.791 25.8574 49.9375 25.4644 C 50.082 25.0718 49.9707 24.6289 49.6563 24.353 ZM 43 24.1069 C 42.4473 24.1069 42 24.5566 42 25.1123 L 42 46.2246 L 10 46.2246 L 10 25.1123 C 10 24.5566 9.5527 24.1069 9 24.1069 L 5.6738 24.1069 L 26 6.3374 L 46.3262 24.1069 L 43 24.1069 ZM 22.3296 27.2471 C 22.3296 28.0264 22.457 28.7959 22.7114 29.542 L 16.4209 35.833 C 16.2266 36.0264 16.1177 36.29 16.1177 36.5645 L 16.1177 39.6709 C 16.1177 40.2432 16.5806 40.7061 17.1528 40.7061 L 20.2588 40.7061 C 20.5337 40.7061 20.7969 40.5967 20.9907 40.4023 L 27.2813 34.1133 C 28.0273 34.3652 28.7959 34.4941 29.5762 34.4941 C 33.5723 34.4941 36.8232 31.2432 36.8232 27.2471 C 36.8232 23.2515 33.5723 20 29.5762 20 C 25.5811 20 22.3296 23.2515 22.3296 27.2471 ZM 29.5762 22.0703 C 32.4316 22.0703 34.7529 24.3926 34.7529 27.2471 C 34.7529 30.1006 32.4316 32.4238 29.5762 32.4238 C 28.8525 32.4238 28.1387 32.2666 27.4551 31.957 C 27.0586 31.7773 26.5981 31.8633 26.2964 32.1689 L 19.8301 38.6348 L 18.188 38.6348 L 18.188 36.9932 L 24.6548 30.5264 C 24.96 30.2227 25.043 29.7617 24.8672 29.3691 C 24.5576 28.6836 24.3999 27.9688 24.3999 27.2471 C 24.3999 24.3931 26.7212 22.0703 29.5762 22.0703 ZM 30.2354 24.7061 C 29.1953 24.7061 28.3525 25.5488 28.3525 26.5884 C 28.3525 27.6279 29.1953 28.4707 30.2354 28.4707 C 31.2744 28.4707 32.1172 27.6279 32.1172 26.5884 C 32.1172 25.5488 31.2744 24.7061 30.2354 24.7061 Z" />
</svg>